<svg width="74" height="77" viewBox="0 0 74 77" fill="none" xmlns="http://www.w3.org/2000/svg">
<path d="M0.335999 77V2.69601H13.728V12.344H14.448C15.6 9.17601 17.232 6.48801 19.344 4.28001C21.552 2.07201 24.672 0.968018 28.704 0.968018C32.64 0.968018 35.664 2.07201 37.776 4.28001C39.984 6.39201 41.376 9.32001 41.952 13.064H42.528C43.872 9.70401 45.744 6.87201 48.144 4.56801C50.544 2.16801 54 0.968018 58.512 0.968018C64.272 0.968018 68.256 2.98402 70.464 7.01601C72.768 11.048 73.92 16.952 73.92 24.728V77H60.528V26.744C60.528 21.56 59.904 18.008 58.656 16.088C57.408 14.072 55.392 13.064 52.608 13.064C50.112 13.064 48 13.928 46.272 15.656C44.64 17.288 43.824 19.784 43.824 23.144V77H30.432V26.744C30.432 21.56 29.808 18.008 28.56 16.088C27.408 14.072 25.44 13.064 22.656 13.064C20.064 13.064 17.904 13.928 16.176 15.656C14.544 17.288 13.728 19.784 13.728 23.144V77H0.335999Z" fill="black"/>
</svg>
